PathFileType	4	(X/Y/Z)	C:/Users/opensim2020/Desktop/walking_exp_matlab/subject02_walking07_straight_04.trc	
DataRate	CameraRate	NumFrames	NumMarkers	Units	OrigDataRate	OrigDataStartFrame	OrigNumFrames	
100.00	100.00	6	50	mm	100.00	2850	207	
Frame#	Time	LFHD			RFHD			LBHD			RBHD			C7			T10			CLAV			STRN			RBAK			LSHO			LUPA			LELB			LFRM			LWRA			LWRB			LFIN			RSHO			RUPA			RELB			RFRM			RWRA			RWRB			RFIN			LASI			RASI			LPSI			RPSI			LTHI			LKNE			LTIB			LANK			LHEE			LTOE			RTHI			RKNE			RTIB			RANK			RHEE			RTOE			*39			*40			*41			*42			*43			*44			*45			*46			*47			*48			*49			
		X1	Y1	Z1	X2	Y2	Z2	X3	Y3	Z3	X4	Y4	Z4	X5	Y5	Z5	X6	Y6	Z6	X7	Y7	Z7	X8	Y8	Z8	X9	Y9	Z9	X10	Y10	Z10	X11	Y11	Z11	X12	Y12	Z12	X13	Y13	Z13	X14	Y14	Z14	X15	Y15	Z15	X16	Y16	Z16	X17	Y17	Z17	X18	Y18	Z18	X19	Y19	Z19	X20	Y20	Z20	X21	Y21	Z21	X22	Y22	Z22	X23	Y23	Z23	X24	Y24	Z24	X25	Y25	Z25	X26	Y26	Z26	X27	Y27	Z27	X28	Y28	Z28	X29	Y29	Z29	X30	Y30	Z30	X31	Y31	Z31	X32	Y32	Z32	X33	Y33	Z33	X34	Y34	Z34	X35	Y35	Z35	X36	Y36	Z36	X37	Y37	Z37	X38	Y38	Z38	X39	Y39	Z39	X40	Y40	Z40	X41	Y41	Z41	X42	Y42	Z42	X43	Y43	Z43	X44	Y44	Z44	X45	Y45	Z45	X46	Y46	Z46	X47	Y47	Z47	X48	Y48	Z48	X49	Y49	Z49	X50	Y50	Z50	

130	1.290	-994.01178	-469.37415	1735.94946	-1134.18457	-450.01236	1711.45361	-966.87299	-333.98587	1676.62268	-1105.25635	-301.81479	1652.18372	-1033.67285	-261.74667	1524.45276	-1047.12573	-219.95900	1246.82385	-1026.80774	-404.97342	1461.57666	-1041.24377	-464.79333	1293.94006	-1101.27637	-209.08815	1347.19116	-855.16608	-335.85428	1497.24719	-781.15393	-329.24857	1292.81409	-776.82349	-326.14218	1152.88342	-760.60571	-326.18161	1024.10974	-790.80188	-365.91028	889.19550	-752.88788	-324.85916	901.01489	-751.90784	-329.65097	833.41364	-1222.82068	-332.61877	1496.15833	-1309.27759	-308.66196	1304.93811	-1330.53723	-329.76166	1160.20728	-1353.33533	-366.53439	1046.55432	-1339.86450	-425.25327	923.88519	-1369.60852	-377.63638	917.59802	-1375.44324	-419.60092	858.01166	-913.50317	-447.93286	983.48376	-1169.48560	-458.78171	980.53906	-1005.24078	-241.60622	1029.25195	-1120.69849	-241.57228	1034.75647	-846.66345	-409.29489	676.06555	-857.22662	-401.63647	489.74872	-870.66455	-257.67178	373.03592	-895.97772	-135.94455	187.24576	-956.12915	-104.70296	174.28406	-847.07416	-227.18225	72.00041	-1233.41858	-406.90112	672.94324	-1184.43091	-419.96750	464.48355	-1184.28906	-376.62097	279.47449	-1137.92627	-355.03726	89.50698	-1079.97571	-321.52640	37.37925	-1157.70520	-506.35486	35.69055	-1074.38367	-364.73734	1808.25977																														 
131	1.300	-994.15979	-478.77383	1737.12122	-1134.20740	-459.60962	1712.77112	-967.27014	-342.59958	1677.70679	-1106.09314	-311.25116	1653.37061	-1035.10657	-270.51749	1525.92224	-1049.27905	-228.54756	1248.21997	-1027.43494	-413.88248	1462.53491	-1042.27747	-473.21466	1294.81104	-1103.15466	-218.12521	1348.99780	-856.37262	-343.91830	1497.75452	-782.60486	-333.59067	1293.49292	-778.93359	-327.02985	1153.70154	-762.83832	-323.42892	1024.93616	-793.88971	-359.58536	888.80469	-755.25494	-319.73663	901.81946	-754.97229	-321.89127	833.81097	-1223.85071	-342.89368	1498.03589	-1311.68750	-321.07504	1307.15332	-1333.27527	-343.79120	1162.51038	-1355.17090	-382.81131	1049.35706	-1341.19739	-443.65326	928.26825	-1371.59998	-396.71024	920.78680	-1377.06934	-440.20798	862.43243	-915.34058	-456.48447	985.72052	-1171.33008	-467.23260	981.83472	-1006.43280	-249.81046	1030.63062	-1121.81885	-249.61620	1035.39294	-847.67303	-422.04645	678.46490	-858.70227	-417.69519	491.62891	-872.37390	-276.85126	370.75595	-898.22064	-160.77464	181.35101	-958.50726	-129.86249	167.02695	-849.21143	-256.13205	69.91231	-1233.58569	-410.76620	672.92273	-1184.72852	-421.95999	464.31546	-1184.51843	-377.95212	279.50668	-1138.08252	-355.19427	89.81899	-1079.91211	-321.53271	37.49319	-1157.72449	-506.41425	35.76989	-1074.80139	-374.09723	1809.62561																														 
132	1.310	-993.67029	-487.29779	1737.63318	-1134.15161	-469.24155	1713.96033	-968.10913	-351.71375	1678.22388	-1106.89929	-320.69601	1654.63184	-1036.36243	-279.44040	1526.98584	-1051.26929	-237.09288	1249.48352	-1028.12695	-421.78397	1463.14734	-1043.08459	-481.50690	1295.48291	-1105.49194	-227.15715	1350.56689	-857.34033	-351.56714	1498.39368	-783.75641	-336.74005	1294.34192	-780.81396	-327.92212	1154.64966	-764.80786	-322.22974	1026.09180	-796.98816	-354.11569	888.68988	-757.71405	-315.13260	903.14606	-757.81073	-314.80396	834.70599	-1224.57166	-352.94669	1499.98303	-1313.90173	-333.47241	1309.30554	-1336.20215	-357.77661	1164.89844	-1357.50378	-399.33072	1052.49158	-1342.37683	-462.05685	932.54633	-1373.54028	-415.70218	924.11523	-1378.51782	-460.69135	866.86090	-917.45325	-465.16162	988.07434	-1173.32837	-473.69910	982.50293	-1007.22559	-258.10052	1031.89612	-1122.64294	-257.58978	1035.99243	-848.68085	-434.55252	680.62079	-860.17084	-433.42380	493.33203	-873.70850	-296.27182	367.89227	-900.30212	-186.32643	174.81035	-960.51270	-155.76108	159.33722	-851.33142	-285.93323	67.41865	-1234.11145	-414.69812	672.83301	-1184.95483	-423.98306	464.13196	-1184.58362	-379.36969	279.48621	-1138.07446	-355.37912	89.91099	-1079.86401	-321.52017	37.61822	-1157.78101	-506.35687	35.72306	-1074.81958	-383.56790	1810.70959																														 
133	1.320	-993.29272	-496.40161	1738.34460	-1134.08167	-479.02084	1714.88733	-968.26648	-360.24899	1679.57910	-1107.48499	-330.26566	1655.86218	-1037.64758	-288.44427	1528.13464	-1053.15588	-245.62024	1250.68469	-1028.69019	-430.43521	1463.86938	-1044.01367	-490.01636	1296.27441	-1107.74463	-236.09416	1351.91626	-858.22485	-358.90610	1498.88940	-784.79218	-340.02451	1295.03772	-782.54352	-328.57959	1155.63904	-767.12262	-319.80527	1027.04211	-799.73743	-348.92065	889.31506	-760.06042	-309.81958	904.07941	-760.61597	-308.77667	835.86212	-1225.44629	-363.07117	1501.72827	-1316.06018	-345.81464	1311.46960	-1338.51196	-371.97391	1167.14893	-1359.07825	-415.65872	1055.52466	-1343.48010	-480.63516	937.05688	-1375.32629	-434.65958	927.53656	-1379.75464	-481.09320	871.41467	-919.91840	-473.86719	990.37671	-1175.32043	-481.06467	983.28430	-1007.75214	-266.53922	1033.12805	-1123.27710	-265.48099	1036.55151	-849.40430	-447.11035	683.09564	-861.55133	-448.84781	494.86276	-874.84967	-315.74567	364.45142	-902.13336	-212.60539	167.59036	-962.37109	-182.24710	151.02455	-853.31940	-316.48560	64.63455	-1234.60730	-418.82059	672.76306	-1185.11853	-425.87546	463.90652	-1184.63049	-380.65747	279.46460	-1138.04382	-355.53571	90.01692	-1079.95178	-321.05313	37.38235	-1157.89258	-506.45108	35.71381	-1074.79004	-392.95615	1811.67969																														 
134	1.330	-992.90649	-504.96786	1738.98096	-1133.76440	-488.60370	1715.89746	-968.85687	-369.03287	1679.81885	-1107.94556	-339.72568	1656.92432	-1038.89783	-297.34958	1529.13916	-1054.87988	-254.10229	1251.71863	-1029.10461	-439.36154	1464.64978	-1044.76587	-498.43985	1296.87012	-1109.93091	-245.17366	1353.38574	-859.17096	-366.45834	1499.23584	-785.93323	-343.43011	1295.73694	-784.10907	-329.27036	1156.69373	-769.01093	-317.70789	1028.04199	-802.22546	-344.81760	890.44861	-762.68878	-306.04379	905.20441	-763.72137	-303.89789	836.94452	-1226.14966	-372.96698	1503.59680	-1318.07361	-358.11145	1313.53796	-1341.22253	-385.96759	1169.48230	-1361.22021	-432.07272	1058.56714	-1344.36560	-498.68774	941.23199	-1376.82458	-453.64539	930.92065	-1380.89844	-501.27759	875.99231	-922.36011	-482.69046	992.54932	-1177.39636	-488.29047	983.73254	-1008.10187	-274.91534	1034.42249	-1123.66174	-273.26297	1037.06592	-850.07227	-458.79901	685.25787	-863.00635	-463.85477	496.17575	-875.85773	-335.29495	360.52283	-903.70953	-239.56833	159.90552	-963.62781	-209.69624	142.05139	-855.16455	-347.83316	61.70010	-1234.96423	-423.10892	672.64124	-1185.36475	-427.66254	463.72650	-1184.63135	-381.62982	279.52106	-1137.95935	-355.72028	90.17707	-1079.71509	-321.33176	37.74254	-1157.97876	-506.22742	35.67070	-1074.75513	-402.66824	1812.62415																														 
135	1.340	-992.65485	-514.66772	1739.23108	-1133.42163	-498.36203	1716.49561	-969.16827	-377.89145	1680.34351	-1108.45691	-349.15631	1657.86621	-1040.35742	-306.44586	1530.13086	-1056.51172	-262.57416	1252.58630	-1029.43506	-448.22678	1465.23425	-1045.53687	-506.84393	1297.36487	-1111.96350	-254.10884	1354.49512	-860.08984	-374.05032	1499.40576	-786.89917	-346.56467	1296.54712	-785.52582	-329.81665	1157.66113	-770.90991	-316.10443	1029.17651	-804.83966	-340.58310	891.07666	-765.18243	-302.33069	906.39294	-766.56763	-299.06946	838.30957	-1226.73108	-382.90735	1505.13232	-1320.00696	-370.36923	1315.49927	-1343.31567	-400.12024	1171.65662	-1362.94312	-448.31036	1061.55762	-1344.98218	-516.45764	945.46283	-1378.28394	-472.47177	934.34790	-1381.89551	-521.36182	880.59589	-924.76288	-491.68817	994.44788	-1179.46570	-495.46744	983.89459	-1008.28210	-283.39099	1035.62939	-1123.88782	-280.99350	1037.62915	-850.70990	-470.67325	687.21136	-864.47516	-478.43765	497.34589	-876.83661	-354.77267	356.19565	-905.01007	-267.23056	151.78004	-965.07056	-237.96782	132.64020	-856.73889	-379.98935	58.90385	-1235.39832	-427.62811	672.37170	-1185.45203	-429.34717	463.48126	-1184.60730	-382.24045	279.64587	-1137.83923	-355.78915	90.29012	-1079.72693	-321.12131	37.95986	-1158.08984	-506.21548	35.68554	-1074.26794	-412.03561	1813.31995																														 
